<mxfile host="app.diagrams.net" modified="2023-11-16T01:54:40.681Z" agent="Mozilla/5.0 (Windows NT 10.0; Win64; x64; rv:109.0) Gecko/20100101 Firefox/119.0" version="22.1.2" etag="P9knS02csADL2J2YAC3m" type="github">
  <diagram name="第 1 页" id="-tjAMChDRnPJ9yrzMgMF">
    <mxGraphModel>
      <root>
        <mxCell id="0" />
        <mxCell id="1" parent="0" />
      </root>
    </mxGraphModel>
  </diagram>
</mxfile>
